# xmcd
#
# Track frame offsets: 
#        150
#        10545
#        23494
#        34530
#        45065
#        54636
#        63776
#        75861
#        90574
#        103155
#        117185
#        129981
#        140358
#        151559
#        162277
#        173962
#        182861
#        194688
#        208571
#        218926
#        229632
#        242434
#        253137
#        264763
#        273954
#
# Disc length: 3792 seconds
#
# Revision: 0
# Processed by: cddbd v1.5.2PL0 Copyright (c) Steve Scherf et al.
# Submitted via: ExactAudioCopy v1.3
#
DISCID=330ece19
DTITLE=Johnny Horton - The Best Of CD 2
DYEAR=2018
DGENRE=Country
TTITLE0=Ridin' The Sunshine Special (1959)
TTITLE1=The Child's Side Of Life (1959)
TTITLE2=The Devil's Made A Masterpiece (1959)
TTITLE3=The First Train Heading South (1959
TTITLE4=The Golden Rocket (1959)
TTITLE5=The SS Lureline (1959)
TTITLE6=The Train With A Rumba Beat (1959
TTITLE7=Sink The Bismark (1960)
TTITLE8=Johnny Freedom (Freedomland) (1960)
TTITLE9=Comanche (The Brave Horse) (1960)
TTITLE10=North To Alaska (1960)
TTITLE11=The Sinking Of Reuben James (1960
TTITLE12=Jim Bridger (1960
TTITLE13=John Paul Jones (1960)
TTITLE14=The Battle Of Bull Run (1960)
TTITLE15=Young Abe Lincoln (1960)
TTITLE16=Sleepy-Eyed John (1961)
TTITLE17=They'll Never Take Her Love from Me (1961)
TTITLE18=Ole Slew-Foot (1961)
TTITLE19=Devilish Love Light (1961)
TTITLE20=Done Rovin' (1961).
TTITLE21=Go And Wash Your Dirty Feet (1961)
TTITLE22=Coal, Smoke, Valve Oil And Steam (1962)
TTITLE23=Gobbler, The Hound Dog (1962)
TTITLE24=Goodbye Lonesome, Hello Baby Doll (1962)
EXTD=
EXTT0=
EXTT1=
EXTT2=
EXTT3=
EXTT4=
EXTT5=
EXTT6=
EXTT7=
EXTT8=
EXTT9=
EXTT10=
EXTT11=
EXTT12=
EXTT13=
EXTT14=
EXTT15=
EXTT16=
EXTT17=
EXTT18=
EXTT19=
EXTT20=
EXTT21=
EXTT22=
EXTT23=
EXTT24=
PLAYORDER=
